<svg viewBox="0 0 1024 1024" width="1024" height="1024" xmlns="http://www.w3.org/2000/svg">
  <style>
    :root {
      color-scheme: light dark;
    }
    path, rect {
      fill: black;
    }
    @media (prefers-color-scheme: dark) {
      path, rect {
        fill: white;
      }
    }
  </style>

  <!-- LOGOMARK -->
  <path d="
    M 181,466
    L 108,409
    C 102,404 98,407 100,414
    L 116,476
    L 105,493
    C 102,498 102,501 105,506
    L 117,526
    L 100,590
    C 98,597 102,600 108,595
    L 181,535
    Z" />
  <path d="
    M 334,466
    L 407,409
    C 413,404 417,407 415,414
    L 399,476
    L 410,493
    C 413,498 413,501 410,506
    L 399,526
    L 415,590
    C 417,597 413,600 407,595
    L 334,535
    Z" />
  <rect x="180" y="435" width="155" height="135" rx="30" />

  <!-- N -->
  <path d="
    M 467,371
    L 507,371
    L 583,482
    L 583,371
    L 619,371
    L 619,539
    L 579,539
    L 503,429
    L 503,539
    L 467,539
    Z" />

  <!-- I -->
  <path d="
    M 653,371
    L 689,371
    L 689,539
    L 653,539
    Z" />

  <!-- X -->
  <path d="
    M 716,371
    L 756,371
    L 868,539
    L 828,539

    M 828,371
    L 868,371
    L 756,539
    L 716,539
    Z" />

  <!-- W -->
  <path d="
    M 467,577
    L 480,577
    L 489,610
    L 499,577
    L 512,577
    L 521,610
    L 531,577
    L 544,577
    L 529,631
    L 516,631
    L 505.5,596
    L 495,631
    L 482,631
    Z" />

  <!-- R -->
  <path fill-rule="evenodd" d="
    M 552,577
    L 579,577
    C 590,577 605,600 583,610
    L 598,631
    L 584,631
    L 570,611
    L 564,611
    L 564,631
    L 552,631
    Z

    M 564,588
    L 577,588
    C 585,588 585,600 577,600
    L 564,600
    Z" />

  <!-- A -->
  <path d="
    M 604,631
    L 624,577
    L 638,577
    L 658,631
    L 646,631
    L 631,590
    L 616,631
    Z" />
  <path d="
    M 616,611
    L 646,611
    L 646,621
    L 616,621
    Z" />

  <!-- P -->
  <path fill-rule="evenodd" d="
    M 667,577
    L 692,577
    C 715,577 715,612 692,612
    L 679,612
    L 679,631
    L 667,631
    Z

    M 679,588
    L 692,588
    C 698,588 698,601 692,601
    L 679,601
    Z" />

  <!-- P -->
  <path fill-rule="evenodd" d="
    M 721,577
    L 746,577
    C 769,577 769,612 746,612
    L 733,612
    L 733,631
    L 721,631
    Z

    M 733,588
    L 746,588
    C 752,588 752,601 746,601
    L 733,601
    Z" />

  <!-- E -->
  <path d="
    M 774,577
    L 811,577
    L 811,588
    L 785,588
    L 785,599
    L 805,599
    L 805,609
    L 785,609
    L 785,620
    L 811,620
    L 811,631
    L 774,631
    Z" />

  <!-- R -->
  <path fill-rule="evenodd" d="
    M 824,577
    L 851,577
    C 862,577 877,600 855,610
    L 870,631
    L 856,631
    L 842,611
    L 836,611
    L 836,631
    L 824,631
    Z

    M 836,588
    L 849,588
    C 857,588 857,600 849,600
    L 836,600
    Z" />
</svg>
